<svg width="24" height="24" viewBox="0 0 24 24" fill="none" xmlns="http://www.w3.org/2000/svg">
<path d="M5.46967 12.5303C5.17678 12.2374 5.17678 11.7626 5.46967 11.4697L7.46967 9.46967C7.76257 9.17678 8.23744 9.17678 8.53033 9.46967C8.82323 9.76256 8.82323 10.2374 8.53033 10.5303L7.81066 11.25L15 11.25C15.4142 11.25 15.75 11.5858 15.75 12C15.75 12.4142 15.4142 12.75 15 12.75L7.81066 12.75L8.53033 13.4697C8.82323 13.7626 8.82323 14.2374 8.53033 14.5303C8.23744 14.8232 7.76257 14.8232 7.46967 14.5303L5.46967 12.5303Z" fill="#EFEFEF"/>
<path fill-rule="evenodd" clip-rule="evenodd" d="M13.9453 1.25H15.0551C16.4227 1.24998 17.525 1.24996 18.392 1.36652C19.2921 1.48754 20.05 1.74643 20.6519 2.34835C21.2538 2.95027 21.5127 3.70814 21.6337 4.60825C21.7503 5.47522 21.7502 6.57754 21.7502 7.94513V16.0549C21.7502 17.4225 21.7503 18.5248 21.6337 19.3918C21.5127 20.2919 21.2538 21.0497 20.6519 21.6517C20.05 22.2536 19.2921 22.5125 18.392 22.6335C17.525 22.75 16.4227 22.75 15.0551 22.75H13.9453C12.5778 22.75 11.4754 22.75 10.6085 22.6335C9.70836 22.5125 8.95048 22.2536 8.34857 21.6517C7.94963 21.2527 7.70068 20.7844 7.54305 20.2498C6.59168 20.2486 5.79906 20.2381 5.15689 20.1518C4.39294 20.0491 3.7306 19.8268 3.20191 19.2981C2.67321 18.7694 2.45093 18.1071 2.34822 17.3431C2.24996 16.6123 2.24998 15.6865 2.25 14.5537V9.44631C2.24998 8.31349 2.24996 7.38774 2.34822 6.65689C2.45093 5.89294 2.67321 5.2306 3.20191 4.7019C3.7306 4.17321 4.39294 3.95093 5.15689 3.84822C5.79906 3.76188 6.59168 3.75142 7.54305 3.75017C7.70068 3.21562 7.94963 2.74729 8.34857 2.34835C8.95048 1.74643 9.70836 1.48754 10.6085 1.36652C11.4754 1.24996 12.5778 1.24998 13.9453 1.25ZM7.25197 17.0042C7.25555 17.6487 7.2662 18.2293 7.30285 18.7491C6.46836 18.7459 5.848 18.7312 5.35676 18.6652C4.75914 18.5848 4.46611 18.441 4.26257 18.2374C4.05903 18.0339 3.91519 17.7409 3.83484 17.1432C3.7516 16.5241 3.75 15.6997 3.75 14.5V9.5C3.75 8.30029 3.7516 7.47595 3.83484 6.85676C3.91519 6.25914 4.05903 5.9661 4.26257 5.76256C4.46611 5.55902 4.75914 5.41519 5.35676 5.33484C5.848 5.2688 6.46836 5.25415 7.30285 5.25091C7.2662 5.77073 7.25555 6.35129 7.25197 6.99583C7.24966 7.41003 7.58357 7.74768 7.99778 7.74999C8.41199 7.7523 8.74964 7.41838 8.75194 7.00418C8.75803 5.91068 8.78643 5.1356 8.89448 4.54735C8.9986 3.98054 9.16577 3.65246 9.40923 3.40901C9.68599 3.13225 10.0746 2.9518 10.8083 2.85315C11.5637 2.75159 12.5648 2.75 14.0002 2.75H15.0002C16.4356 2.75 17.4367 2.75159 18.1921 2.85315C18.9259 2.9518 19.3144 3.13225 19.5912 3.40901C19.868 3.68577 20.0484 4.07435 20.1471 4.80812C20.2486 5.56347 20.2502 6.56459 20.2502 8V16C20.2502 17.4354 20.2486 18.4365 20.1471 19.1919C20.0484 19.9257 19.868 20.3142 19.5912 20.591C19.3144 20.<svg xmlns="http://www.w3.org/2000/svg" width="20" height="20" viewBox="0 0 20 20" fill="none">
  <path fill-rule="evenodd" clip-rule="evenodd" d="M7.50033 1.04169C5.3142 1.04169 3.54199 2.81389 3.54199 5.00002C3.54199 7.18615 5.3142 8.95835 7.50033 8.95835C9.68645 8.95835 11.4587 7.18615 11.4587 5.00002C11.4587 2.81389 9.68645 1.04169 7.50033 1.04169ZM4.79199 5.00002C4.79199 3.50425 6.00455 2.29169 7.50033 2.29169C8.9961 2.29169 10.2087 3.50425 10.2087 5.00002C10.2087 6.49579 8.9961 7.70835 7.50033 7.70835C6.00455 7.70835 4.79199 6.49579 4.79199 5.00002Z" fill="#5C5C7B"/>
  <path d="M12.5003 1.87502C12.1551 1.87502 11.8753 2.15484 11.8753 2.50002C11.8753 2.8452 12.1551 3.12502 12.5003 3.12502C13.5359 3.12502 14.3753 3.96449 14.3753 5.00002C14.3753 6.03555 13.5359 6.87502 12.5003 6.87502C12.1551 6.87502 11.8753 7.15484 11.8753 7.50002C11.8753 7.8452 12.1551 8.12502 12.5003 8.12502C14.2262 8.12502 15.6253 6.72591 15.6253 5.00002C15.6253 3.27413 14.2262 1.87502 12.5003 1.87502Z" fill="#5C5C7B"/>
  <path fill-rule="evenodd" clip-rule="evenodd" d="M3.06545 11.267C4.23159 10.6006 5.80088 10.2084 7.50033 10.2084C9.19977 10.2084 10.7691 10.6006 11.9352 11.267C13.0837 11.9233 13.9587 12.9251 13.9587 14.1667C13.9587 15.4082 13.0837 16.4101 11.9352 17.0664C10.7691 17.7327 9.19977 18.125 7.50033 18.125C5.80088 18.125 4.23159 17.7327 3.06545 17.0664C1.91699 16.4101 1.04199 15.4082 1.04199 14.1667C1.04199 12.9251 1.91699 11.9233 3.06545 11.267ZM3.68562 12.3523C2.72283 12.9025 2.29199 13.5673 2.29199 14.1667C2.29199 14.7661 2.72283 15.4309 3.68562 15.9811C4.63073 16.5211 5.97811 16.875 7.50033 16.875C9.02254 16.875 10.3699 16.5211 11.315 15.9811C12.2778 15.4309 12.7087 14.7661 12.7087 14.1667C12.7087 13.5673 12.2778 12.9025 11.315 12.3523C10.3699 11.8123 9.02254 11.4584 7.50033 11.4584C5.97811 11.4584 4.63073 11.8123 3.68562 12.3523Z" fill="#5C5C7B"/>
  <path d="M15.1342 11.0562C14.797 10.9823 14.4638 11.1956 14.3898 11.5328C14.3159 11.87 14.5293 12.2032 14.8664 12.2772C15.5268 12.422 16.0545 12.6707 16.4027 12.9557C16.7515 13.2411 16.8753 13.5198 16.8753 13.75C16.8753 13.9589 16.7748 14.2042 16.4977 14.4616C16.2187 14.7209 15.7899 14.9604 15.2368 15.1269C14.9063 15.2264 14.719 15.5751 14.8185 15.9056C14.9181 16.2361 15.2667 16.4234 15.5972 16.3238C16.2827 16.1174 16.8955 15.7982 17.3485 15.3774C17.8034 14.9548 18.1253 14.3989 18.1253 13.75C18.1253 13.0294 17.7301 12.4267 17.1943 11.9883C16.6581 11.5495 15.9358 11.232 15.1342 11.0562Z" fill="#5C5C7B"/>
</svg>8678 18.9259 21.0482 18.1921 21.1469C17.4367 21.2484 16.4356 21.25 15.0002 21.25H14.0002C12.5648 21.25 11.5637 21.2484 10.8083 21.1469C10.0746 21.0482 9.68599 20.8678 9.40923 20.591C9.16577 20.3475 8.9986 20.0195 8.89448 19.4527C8.78643 18.8644 8.75803 18.0893 8.75194 16.9958C8.74964 16.5816 8.41199 16.2477 7.99778 16.25C7.58357 16.2523 7.24966 16.59 7.25197 17.0042Z" fill="#EFEFEF"/>
</svg>